<?xml version="1.0" encoding="UTF-8"?>
<svg version="1.1" viewBox="0 0 159.31 128.05" xmlns="http://www.w3.org/2000/svg">
 <path d="m142.31 45.052 8.4 47.2c0.8 4.5-2.4 8-12.3 10.5l-41.1 10.2c-3.5 3.9-4.6 14.4-1.6 15.1 0 0 33.4-3.1 50.8-4.6 4.1-0.4 10.4-6.3 10.6-10.6l2.2-57.1zm-29.4 56.7-11.8-59.1 4.4-1 12.7 57.4c0.8 3.5 28.3-1.9 27.6-5.7l-13.1-74c-0.7-3.9-8.9-18.7-11.8-18.3l-15.5 2.4c-3.8 0.6-4.8 4.9-10.1 5.9-4.7 0.9-10.9-10.2-15.1-9.3l-15.5 3.5c-4.3 1-4.5 10.6-9.2 11.9-4.8 1.4-7.9-2.6-11.3-1.6l-12.1 3.5c-4.9 1.4-5 12.7-9.7 14.7-4.3 1.8-8-1.3-11.2 0.8l-9.9 6.5c-2.3 1.4-1.1 17.5 0.1 20.6l18.495 51.6c1 2.8 21.6-2.1 20.9-4.8l-12.9-48 4.4-1 15.5 57c0.8 3.1 27.3-2.5 26.6-5.6-4.3-19.3-12.8-57.8-12.8-57.8l4.4-1 13.7 58.7c0.8 3.2 34-3.6 33.2-7.3z"/>
</svg>
