<?xml version="1.0" encoding="iso-8859-1"?>
<!-- Generator: Adobe Illustrator 19.0.0, SVG Export Plug-In . SVG Version: 6.00 Build 0)  -->
<svg version="1.1" id="Capa_1" xmlns="http://www.w3.org/2000/svg" xmlns:xlink="http://www.w3.org/1999/xlink" x="0px" y="0px"
	 viewBox="0 0 480 480" style="enable-background:new 0 0 480 480;" xml:space="preserve">
<g>
	<g>
		<path d="M432,227.876h-57.224l-5.336-32H424c13.255,0,24-10.745,24-24v-112c0-13.255-10.745-24-24-24H248
			c-13.255,0-24,10.745-24,24v112c0,13.255,10.745,24,24,24h54.56l-5.336,32H192v-32c0-17.673-14.327-32-32-32H64
			c-17.673,0-32,14.327-32,32v144c0,17.673,14.327,32,32,32h24v20.44l-51.432,46.296c-8.912,7.743-9.859,21.244-2.116,30.156
			c7.743,8.912,21.244,9.859,30.156,2.116c0.19-0.165,0.376-0.333,0.56-0.504L136,406.636v45.24c0,13.255,10.745,24,24,24
			s24-10.745,24-24v-45.24l70.832,63.744c8.711,7.968,22.232,7.365,30.2-1.346c7.968-8.711,7.365-22.232-1.346-30.2
			c-0.081-0.074-0.163-0.148-0.246-0.221L232,392.316v-20.44h40c17.673,0,32-14.327,32-32c0-17.673-14.327-32-32-32h-80v-32h192v176
			c0,13.255,10.745,24,24,24s24-10.745,24-24v-176c13.255,0,24-10.745,24-24S445.255,227.876,432,227.876z M64,355.876L64,355.876
			c-8.837,0-16-7.163-16-16v-144c0-8.837,7.163-16,16-16h96c8.837,0,16,7.163,16,16v144c0.019,1.928,0.215,3.851,0.584,5.744
			c0.08,0.456,0.168,0.904,0.272,1.352c0.395,1.812,0.947,3.587,1.648,5.304c0,0.08,0.08,0.152,0.112,0.224
			c0.492,1.158,1.053,2.285,1.68,3.376H64z M54.464,458.492c-0.989,0.889-2.271,1.382-3.6,1.384
			c-2.969,0.005-5.38-2.399-5.384-5.368c-0.002-1.529,0.646-2.987,1.784-4.008l51.808-46.624h16.08L54.464,458.492z M168,451.876
			c0,4.418-3.582,8-8,8s-8-3.582-8-8v-48h16V451.876z M176,387.876h-72v-16h112v16H176z M272.736,450.5
			c2.209,1.984,2.392,5.383,0.408,7.592c-1.022,1.138-2.479,1.786-4.008,1.784c-1.329-0.002-2.611-0.495-3.6-1.384l-60.688-54.616
			h16.08L272.736,450.5z M272,323.876c8.837,0,16,7.163,16,16s-7.163,16-16,16h-64c-8.837,0-16-7.163-16-16v-16H272z M240,59.876
			c0-4.418,3.582-8,8-8h176c4.418,0,8,3.582,8,8v88H240V59.876z M248,179.876c-4.418,0-8-3.582-8-8v-8h192v8c0,4.418-3.582,8-8,8
			h-64H248z M358.552,227.876h-45.104l5.328-32h34.448L358.552,227.876z M416,451.876c0,4.418-3.582,8-8,8s-8-3.582-8-8v-176h16
			V451.876z M432,259.876H192v-16h240c4.418,0,8,3.582,8,8S436.418,259.876,432,259.876z"/>
	</g>
</g>
<g>
	<g>
		<path d="M56,131.876c-30.913,0.035-55.965,25.087-56,56v72h16v-72c0.026-22.08,17.92-39.974,40-40h24v-16H56z"/>
	</g>
</g>
<g>
	<g>
		<rect y="275.876" width="16" height="16"/>
	</g>
</g>
<g>
	<g>
		<path d="M424,3.876h-32v16h32c22.08,0.026,39.974,17.92,40,40v24h16v-24C479.965,28.963,454.913,3.911,424,3.876z"/>
	</g>
</g>
<g>
	<g>
		<rect x="360" y="3.876" width="16" height="16"/>
	</g>
</g>
<g>
	<g>
		<rect x="448" y="307.876" width="16" height="112"/>
	</g>
</g>
<g>
	<g>
		<rect x="328" y="99.876" width="16" height="16"/>
	</g>
</g>
<g>
	<g>
		<rect x="360" y="99.876" width="16" height="16"/>
	</g>
</g>
<g>
	<g>
		<rect x="296" y="99.876" width="16" height="16"/>
	</g>
</g>
<g>
</g>
<g>
</g>
<g>
</g>
<g>
</g>
<g>
</g>
<g>
</g>
<g>
</g>
<g>
</g>
<g>
</g>
<g>
</g>
<g>
</g>
<g>
</g>
<g>
</g>
<g>
</g>
<g>
</g>
</svg>
