<svg height="478pt" viewBox="0 -23 478.656 478" width="478pt" xmlns="http://www.w3.org/2000/svg"><path d="m336.40625 408.449219 12.496094 10c14.832031-18.386719 23.695312-40.863281 25.410156-64.421875.230469-3.15625.34375-6.394532.34375-9.710938-1.699219-40.765625-6.460938-81.34375-14.25-121.394531l-15.75 2.785156c7.613281 39.132813 12.292969 78.777344 14 118.609375 0 2.917969-.105469 5.765625-.304688 8.558594-1.484374 20.328125-9.140624 39.714844-21.945312 55.574219zm0 0"/><path d="m470.65625 24.316406h-40v-8c0-4.421875-3.582031-8-8-8h-48c-4.417969 0-8 3.578125-8 8v56h-32c0-13.257812-10.746094-24-24-24-2.730469.023438-5.4375.523438-8 1.46875v-1.46875c0-13.257812-10.746094-24-24-24-2.730469.023438-5.4375.523438-8 1.46875v-1.46875c.019531-12.027344-8.878906-22.199218-20.796875-23.78125-11.921875-1.578125-23.164063 5.925782-26.273437 17.539063-7.390626-3.003907-15.789063-2.125-22.398438 2.335937-6.609375 4.464844-10.558594 11.929688-10.53125 19.90625v32h-64v-56c0-4.421875-3.582031-8-8-8h-48c-4.417969 0-8 3.578125-8 8v8h-40c-4.417969 0-8 3.578125-8 8v144c0 4.417969 3.582031 8 8 8h40v8c0 4.417969 3.582031 8 8 8h48c4.417969 0 8-3.582031 8-8v-56h26.589844c3.714844 11.167969 11.398437 20.585938 21.601562 26.460938l31.808594 18.175781v96.722656c-25.621094-9.328125-52.738281-13.855469-80-13.359375-91.199219 0-125.257812 49.453125-126.65625 51.558594l13.296875 8.910156c1.230469-1.816406 31.207031-44.46875 113.359375-44.46875 82.464844 0 113.480469 36.660156 113.75 37l12.496094-10c-8.542969-9.367187-18.8125-16.996094-30.246094-22.472656v-108.527344c.003906-2.867187-1.519531-5.515625-4-6.945312l-35.839844-20.488282c-10.171875-5.886718-16.355468-16.820312-16.160156-28.566406.054688-14.550781 9.914062-27.230468 24-30.867187v22.867187h16v-72c0-4.421875 3.582031-8 8-8s8 3.578125 8 8v24h16v-40c0-4.421875 3.582031-8 8-8s8 3.578125 8 8v48h16v-24c0-4.421875 3.582031-8 8-8s8 3.578125 8 8v32h16v-8c0-4.421875 3.582031-8 8-8s8 3.578125 8 8v70.109375l-15.199219 30.3125c-.8125 1.625-1.046875 3.472657-.664062 5.25.277343 1.117188 23.863281 111.820313 23.863281 166.328125 0 2.132813-.074219 4.214844-.222656 6.253906-3.605469 37.726563-35.601563 66.351563-73.496094 65.746094h-246.28125v16h246.28125c46.273438.582032 85.222656-34.507812 89.453125-80.59375.175781-2.40625.265625-4.875.265625-7.40625 0-51.960937-19.824219-148.945312-23.59375-166.921875l14.792969-29.503906c.539062-1.113281.8125-2.339844.800781-3.574219v-8h32v56c0 4.417969 3.582031 8 8 8h48c4.417969 0 8-3.582031 8-8v-8h40c4.417969 0 8-3.582031 8-8v-144c0-4.421875-3.582031-8-8-8zm-440 144v-24h16v-16h-16v-16h16v-16h-16v-16h16v-16h-16v-24h32v128zm80 16h-32v-160h32zm16-96h36.433594c-7.859375 8.820313-12.261719 20.183594-12.394532 32h-24.039062zm208 32v-32h32v32zm80 64h-32v-160h32zm16-16v-128h32v24h-16v16h16v16h-16v16h16v16h-16v16h16v24zm0 0"/><path d="m202.542969 330.820312 8.226562-13.707031c-25.664062-14.355469-54.71875-21.539062-84.113281-20.796875-17.15625-.148437-34.21875 2.476563-50.535156 7.773438l5.070312 15.199218c14.679688-4.757812 30.03125-7.113281 45.464844-6.972656 26.507812-.851562 52.746094 5.546875 75.886719 18.503906zm0 0"/><path d="m59.097656 311.097656c-5.972656 2.964844-11.695312 6.402344-17.113281 10.289063l9.335937 12.992187c4.714844-3.382812 9.695313-6.375 14.894532-8.953125zm0 0"/></svg>