<?xml version="1.0" encoding="iso-8859-1"?>
<!-- Generator: Adobe Illustrator 19.0.0, SVG Export Plug-In . SVG Version: 6.00 Build 0)  -->
<svg version="1.1" id="Capa_1" xmlns="http://www.w3.org/2000/svg" xmlns:xlink="http://www.w3.org/1999/xlink" x="0px" y="0px"
	 viewBox="0 0 480 480" style="enable-background:new 0 0 480 480;" xml:space="preserve">
<g>
	<g>
		<path d="M460,244.045c-11.412,0.343-20.385,9.872-20.042,21.284c0.008,0.276,0.022,0.552,0.042,0.828v1.888h-13.872
			c-9.839-39.931-31.796-75.838-62.856-102.792c18.421-63.612-18.213-130.113-81.825-148.534S151.334,34.932,132.913,98.544
			c-1.422,4.91-2.528,9.906-3.313,14.957c-36.96-10.36-68.344-9.6-85.008,2.504c-7.938,5.417-12.658,14.43-12.592,24.04
			c0,22.504,13.656,44.312,23.952,57.6c-8.683,14.415-15.139,30.058-19.152,46.4H32c-17.673,0-32,14.327-32,32v48
			c0,17.673,14.327,32,32,32h12.376C56.96,381.02,78.13,400.619,104,411.245v32.8c0,4.418,3.582,8,8,8h32v8c0,4.418,3.582,8,8,8h64
			c4.418,0,8-3.582,8-8v-40h24v24c0,4.418,3.582,8,8,8h32v8c0,4.418,3.582,8,8,8h64c4.418,0,8-3.582,8-8v-48
			c37.998-15.592,63.133-52.232,64-93.296c0.139-11.62-0.723-23.231-2.576-34.704H440v16h16v-16h4c11.046,0,20-8.954,20-20
			C480,252.999,471.046,244.045,460,244.045z M175.902,57.063C195.279,38.432,221.119,28.032,248,28.045
			c57.411-0.028,103.974,46.491,104.002,103.902c0.013,26.881-10.387,52.721-29.018,72.098H298.44
			c39.833-27.846,49.55-82.711,21.704-122.544c-27.846-39.833-82.711-49.55-122.544-21.704
			c-39.833,27.846-49.55,82.711-21.704,122.544c5.907,8.45,13.254,15.796,21.704,21.704h-24.584
			C133.225,162.66,134.517,96.854,175.902,57.063z M248,204.045c-39.764,0-72-32.236-72-72c0-39.765,32.236-72,72-72
			c39.765,0,72,32.235,72,72C319.952,171.789,287.744,203.996,248,204.045z M48,140.045c-0.032-4.482,2.228-8.67,5.992-11.104
			c8.749-5.156,18.852-7.548,28.984-6.864c15.332,0.4,30.53,2.964,45.144,7.616c0,0.8-0.12,1.6-0.12,2.352v0.24
			c-24.731,11.718-46.23,29.293-62.632,51.2C55.475,171.003,49.439,155.906,48,140.045z M144,436.045h-24v-19.52
			c7.858,1.971,15.903,3.102,24,3.376V436.045z M288,436.045h-24v-16h24V436.045z M416,318.541
			c-0.691,32.243-19.166,61.457-48,75.904v-6.4h-16v64h-48v-72h-16v24h-64v-16h-16v64h-48v-72h-16v23.856
			c-37.945-1.564-71.74-24.46-87.264-59.12c-1.288-2.881-4.148-4.736-7.304-4.736H32c-8.837,0-16-7.163-16-16v-48
			c0-8.837,7.163-16,16-16h11.2c3.802,0.001,7.08-2.675,7.84-6.4c3.757-18.438,10.919-36.013,21.12-51.824
			c0.096-0.136,0.256-0.192,0.344-0.328c14.182-21.932,33.774-39.84,56.888-52c2.863,19.823,10.713,38.594,22.816,54.552H136v16h224
			v-16h-16.208c5.346-7.04,9.888-14.656,13.544-22.704C395.458,216.689,416.782,266.559,416,318.541z M460,268.045h-4v-1.888
			c0-2.952,1.048-6.112,4-6.112c2.209,0,4,1.791,4,4C464,266.254,462.209,268.045,460,268.045z"/>
	</g>
</g>
<g>
	<g>
		<path d="M270.968,142.402c-1.844-5.929-6.032-10.847-11.592-13.613l-15.592-7.792c-3.38-1.677-4.76-5.777-3.083-9.157
			c1.155-2.328,3.532-3.799,6.131-3.795h2.336c3.771,0.004,6.828,3.061,6.832,6.832v1.168h16v-1.168
			c-0.037-9.94-6.511-18.71-16-21.672v-9.16h-16v9.16c-11.999,3.732-18.7,16.484-14.968,28.483
			c1.844,5.929,6.032,10.847,11.592,13.613l15.592,7.792c3.38,1.677,4.76,5.777,3.083,9.157c-1.155,2.328-3.532,3.8-6.131,3.795
			h-2.336c-3.771-0.004-6.828-3.061-6.832-6.832v-1.168h-16v1.168c0.037,9.94,6.511,18.71,16,21.672v9.16h16v-9.16
			C267.999,167.153,274.7,154.4,270.968,142.402z"/>
	</g>
</g>
<g>
	<g>
		<rect x="32" y="276.045" width="16" height="16"/>
	</g>
</g>
<g>
	<g>
		<rect x="192" y="124.045" width="16" height="16"/>
	</g>
</g>
<g>
	<g>
		<rect x="288" y="124.045" width="16" height="16"/>
	</g>
</g>
<g>
	<g>
		<rect x="88" y="220.045" width="16" height="16"/>
	</g>
</g>
<g>
</g>
<g>
</g>
<g>
</g>
<g>
</g>
<g>
</g>
<g>
</g>
<g>
</g>
<g>
</g>
<g>
</g>
<g>
</g>
<g>
</g>
<g>
</g>
<g>
</g>
<g>
</g>
<g>
</g>
</svg>
