<svg height="511pt" viewBox="-59 1 511 511.99999" width="511pt" xmlns="http://www.w3.org/2000/svg"><path d="m265.035156 290.132812c0-4.710937-3.820312-8.53125-8.535156-8.53125h-42.667969c-9.425781 0-17.066406 7.640626-17.066406 17.066407v34.132812h-8.53125c-4.714844 0-8.535156 3.820313-8.535156 8.53125 0 4.714844 3.820312 8.535157 8.535156 8.535157h8.53125c9.425781 0 17.066406-7.640626 17.066406-17.066407v-34.132812h42.667969c4.714844 0 8.535156-3.820313 8.535156-8.535157zm0 0"/><path d="m171.167969 281.601562h-34.132813c-4.714844 0-8.535156 3.820313-8.535156 8.53125 0 4.714844 3.820312 8.535157 8.535156 8.535157h34.132813c4.710937 0 8.53125-3.820313 8.53125-8.535157 0-4.710937-3.820313-8.53125-8.53125-8.53125zm0 0"/><path d="m188.234375 392.535156c-4.714844 0-8.535156 3.820313-8.535156 8.53125 0 4.714844 3.820312 8.535156 8.535156 8.535156h17.066406c4.710938 0 8.53125-3.820312 8.53125-8.535156 0-4.710937-3.820312-8.53125-8.53125-8.53125zm0 0"/><path d="m358.898438 512v-17.066406c-.140626-40.972656-26.738282-77.15625-65.800782-89.523438 14.933594-18.378906 23.101563-41.328125 23.136719-65.007812v-7.601563c18.851563 0 34.132813-15.28125 34.132813-34.132812 0-18.851563-15.28125-34.132813-34.132813-34.132813v-42.667968h-17.066406v118.535156c0 47.644531-38.621094 86.265625-86.265625 86.265625-.003906 0-.003906 0-.007813 0h-32.257812c-47.640625.003906-86.265625-38.613281-86.269531-86.257813 0 0 0-.003906 0-.007812v-118.535156h-17.066407v42.664062c-18.851562 0-34.132812 15.285156-34.132812 34.136719 0 18.847656 15.28125 34.132812 34.132812 34.132812v7.601563c.03125 23.679687 8.199219 46.628906 23.132813 65.007812-39.058594 12.367188-65.65625 48.550782-65.800782 89.523438v17.066406h17.066407v-17.066406c.125-36.914063 26.417969-68.554688 62.6875-75.425782 4.410156 3.75 9.132812 7.117188 14.113281 10.070313v5.621094c0 37.703125 30.5625 68.265625 68.265625 68.265625s68.269531-30.5625 68.269531-68.265625v-5.621094c4.980469-2.953125 9.699219-6.320313 14.113282-10.070313 36.269531 6.871094 62.5625 38.511719 62.683593 75.425782v17.066406zm-25.597657-213.332031c0 9.425781-7.640625 17.066406-17.066406 17.066406v-34.132813c9.425781 0 17.066406 7.640626 17.066406 17.066407zm-273.066406 0c0-9.425781 7.640625-17.066407 17.066406-17.066407v34.132813c-9.425781 0-17.066406-7.640625-17.066406-17.066406zm136.53125 187.730469c-27.335937-.03125-49.820313-21.535157-51.078125-48.84375 11.214844 4.070312 23.054688 6.160156 34.984375 6.179687h32.257813c11.929687-.019531 23.769531-2.109375 34.988281-6.179687-1.261719 27.332031-23.789063 48.847656-51.152344 48.84375zm0 0"/><path d="m162.632812 315.734375c0 4.710937-3.820312 8.53125-8.53125 8.53125-4.714843 0-8.535156-3.820313-8.535156-8.53125 0-4.714844 3.820313-8.535156 8.535156-8.535156 4.710938 0 8.53125 3.820312 8.53125 8.535156zm0 0"/><path d="m247.96875 315.734375c0 4.710937-3.824219 8.53125-8.535156 8.53125-4.710938 0-8.535156-3.820313-8.535156-8.53125 0-4.714844 3.824218-8.535156 8.535156-8.535156 4.710937 0 8.535156 3.820312 8.535156 8.535156zm0 0"/><path d="m17.566406 490.964844c-.0625-38.21875 21.214844-73.273438 55.144532-90.863282l-7.886719-15.136718c-39.582031 20.519531-64.398438 61.414062-64.324219 106zm0 0"/><path d="m363.671875 412.527344-12.871094 11.210937c16.234375 18.632813 25.175781 42.515625 25.167969 67.226563h17.066406c.007813-28.835938-10.425781-56.695313-29.363281-78.4375zm0 0"/><path d="m337.207031 209.066406c20.394531-35.425781 26.703125-77.234375 17.675781-117.101562l-16.640624 3.789062c8.078124 35.671875 2.433593 73.078125-15.8125 104.78125zm0 0"/><path d="m34.632812 128c0 3.019531.085938 5.972656.25 9.003906l17.066407-.941406c-.171875-2.660156-.25-5.359375-.25-8.0625-.144531-39.59375 16.039062-77.492188 44.734375-104.773438l-11.8125-12.320312c-32.066406 30.488281-50.148438 72.847656-49.988282 117.09375zm0 0"/><path d="m53.707031 152.191406-16.828125 2.816406c1.015625 6.082032 2.382813 12.097657 4.09375 18.023438l16.402344-4.726562c-1.535156-5.296876-2.761719-10.675782-3.667969-16.113282zm0 0"/><path d="m213.832031 0h-34.132812c-4.710938 0-8.53125 3.820312-8.53125 8.535156v20.367188c-9.269531 2.363281-18.15625 6.03125-26.394531 10.898437l-14.378907-14.378906c-3.332031-3.332031-8.734375-3.332031-12.066406 0l-24.140625 24.140625c-3.332031 3.332031-3.332031 8.734375 0 12.066406l14.386719 14.378906c-4.867188 8.234376-8.539063 17.121094-10.90625 26.390626h-20.367188c-4.710937 0-8.535156 3.820312-8.535156 8.535156v34.132812c0 4.710938 3.824219 8.535156 8.535156 8.535156h20.367188c2.367187 9.269532 6.039062 18.15625 10.90625 26.390626l-14.386719 14.378906c-3.332031 3.332031-3.332031 8.734375 0 12.066406l24.140625 24.140625c3.332031 3.332031 8.734375 3.332031 12.066406 0l14.378907-14.378906c8.238281 4.863281 17.125 8.535156 26.394531 10.898437v20.367188c0 4.714844 3.820312 8.535156 8.53125 8.535156h34.132812c4.714844 0 8.535157-3.820312 8.535157-8.535156v-20.367188c9.269531-2.363281 18.15625-6.03125 26.394531-10.898437l14.378906 14.378906c3.332031 3.332031 8.734375 3.332031 12.066406 0l24.140625-24.140625c3.328125-3.332031 3.328125-8.734375 0-12.066406l-14.386718-14.378906c4.867187-8.234376 8.535156-17.121094 10.902343-26.390626h20.371094c4.710937 0 8.53125-3.824218 8.53125-8.535156v-34.132812c0-4.714844-3.820313-8.535156-8.53125-8.535156h-20.371094c-2.367187-9.269532-6.035156-18.15625-10.902343-26.390626l14.386718-14.378906c3.328125-3.332031 3.328125-8.734375 0-12.066406l-24.140625-24.140625c-3.332031-3.332031-8.734375-3.332031-12.066406 0l-14.378906 14.378906c-8.238281-4.867187-17.125-8.535156-26.394531-10.898437v-20.367188c0-4.714844-3.820313-8.535156-8.535157-8.535156zm31.277344 57.710938c3.390625 2.332031 7.960937 1.914062 10.871094-1l13.191406-13.191407 12.074219 12.074219-13.183594 13.203125c-2.910156 2.90625-3.332031 7.480469-.996094 10.871094 6.796875 9.851562 11.417969 21.035156 13.558594 32.808593.742188 4.050782 4.273438 6.988282 8.386719 6.988282h18.6875v17.070312h-18.6875c-4.117188-.003906-7.652344 2.9375-8.394531 6.988282-2.140626 11.773437-6.765626 22.960937-13.5625 32.808593-2.332032 3.390625-1.910157 7.964844 1 10.871094l13.191406 13.203125-12.074219 12.074219-13.191406-13.183594c-2.910157-2.910156-7.480469-3.332031-10.871094-1-9.855469 6.796875-21.042969 11.417969-32.820313 13.558594-4.046874.746093-6.988281 4.273437-6.988281 8.390625v18.6875h-17.066406v-18.6875c0-4.121094-2.9375-7.652344-6.988281-8.398438-11.777344-2.140625-22.964844-6.761718-32.820313-13.558594-3.390625-2.332031-7.964843-1.910156-10.871093 1l-13.195313 13.191407-12.074219-12.074219 13.183594-13.203125c2.914062-2.90625 3.332031-7.480469 1-10.871094-6.796875-9.847656-11.417969-21.035156-13.558594-32.808593-.746094-4.046876-4.273437-6.988282-8.390625-6.988282h-18.6875v-17.070312h18.6875c4.121094.003906 7.652344-2.9375 8.398438-6.988282 2.140625-11.773437 6.761719-22.957031 13.558593-32.808593 2.332032-3.390625 1.910157-7.964844-1-10.871094l-13.191406-13.203125 12.074219-12.074219 13.195313 13.183594c2.90625 2.910156 7.480468 3.332031 10.871093 1 9.851563-6.796875 21.039063-11.417969 32.816407-13.5625 4.046874-.742187 6.988281-4.273437 6.988281-8.386719v-18.6875h17.070312v18.6875c-.003906 4.121094 2.9375 7.652344 6.988281 8.398438 11.777344 2.140625 22.964844 6.761718 32.820313 13.558594zm0 0"/><path d="m128.5 128c0 37.703125 30.566406 68.265625 68.265625 68.265625 37.703125 0 68.269531-30.5625 68.269531-68.265625s-30.566406-68.265625-68.269531-68.265625c-37.683594.042969-68.222656 30.582031-68.265625 68.265625zm119.46875 0c0 28.277344-22.925781 51.199219-51.203125 51.199219s-51.199219-22.921875-51.199219-51.199219 22.921875-51.199219 51.199219-51.199219c28.265625.027344 51.171875 22.933594 51.203125 51.199219zm0 0"/></svg>